<svg alt="K. M. Piekarski" id="logo" xmlns="http://www.w3.org/2000/svg" width="152" height="29" viewBox="0 0 152.3 29.3"><style>.a{fill:#070405;}</style><path d="M149.8 1.9c0-0.1 0-0.1 0-0.2 -0.1 0.1-0.2 0.1-0.3 0.2 0-0.1 0-0.1 0-0.2 -0.4-0.3-0.2 0-0.4-0.5 -0.6 0.2-1.2-0.1-1.8 0 -0.9 0.2-1.4 0.7-2.1 0.9 -0.3-0.5-0.5-0.6-0.7-1.2 -0.1 0.2-0.1 0.2-0.2 0.5 -0.5-0.1-1-0.2-1.2 0 -0.4-0.3-0.2 0-0.3-0.5 -0.4 0.5-0.2 0.6-0.2 1.2 -0.5 0.1-0.3 0.1-0.7 0 0.4 1.2 0 3.1 0.2 4 0.2 1.5 0.9 3.6 1.1 5.1 0.2 0 0.4 0 0.5 0 0.1 0.4 0.1 0.8 0.2 1.2 0.4 0.1 0.3 0 0.5 0.2 0.4 0.3 0.2 0 0.4 0.5 0.2-0.1 0.4-0.2 0.5-0.4 0.3 0.3 0.7 0.7 0.9 1.1C150.8 12.7 152.5 5.2 149.8 1.9zM146.3 10.4c-0.5-0.3-1.1-4.6-1.1-4.6 0.7-0.2 1.4-0.4 1.9-0.9C148.1 6.5 146.6 8.2 146.3 10.4z" class="a"></path><path d="M6.8 13.5c0.2 0 0.3 0 0.5 0 0.2-0.7 0.2-0.7 0.9-0.9 0.1-1 3.9-6 4.7-6.8 0.2 0.3 0.8 0.2 1.9 0.2 0 0.7 0.1 0.7 0.7 1.2 -0.3 0.7-1.5 3-2.1 3.3 -0.2 0-0.1-0.1-0.2 0 -0.4 0.5-0.6 1.5-1.1 1.9 -0.2-0.1-0.4-0.1-0.5-0.2 -0.3 0.3-1.5 2.3-1.6 3 -0.2 0-0.5 0-0.7 0 -0.2 1.1-0.8 1.4-1.1 2.6 1.1 0.8 2.7 2.4 3 4 0.2 0 0.4 0 0.5 0 0.7 1.2 1.8 2.3 2.3 3.7 -0.2 0.3-0.3 0.7-0.4 1.1 -0.6 0-0.8 0.1-1.6 0 0 0.5-0.1 0.9-0.2 1.2 -0.1 0-0.1 0-0.2 0 0-2-1-1.4-1.8-2.5 -0.7-1-0.9-2.2-1.6-3.2 -0.6-0.8-1.5-1.2-1.9-2.3 -0.3 0.2-0.1 0.2-0.5 0.3 -0.5-1.2-1.5-0.4-1.6-2.3 -0.1 0-0.1 0-0.2 0 0 2.1 0.1 5.3-0.4 7.4 -0.3 0.2-0.5 0.2-0.7 0.5 -0.8-0.1-1.4-0.3-2.1 0C0.5 21.7 1.2 15 2.1 10.8c-0.4-0.2-0.1 0.1-0.4-0.3 0.7-0.5 0.3-2.3 0.4-3.3 0.1-1.2-0.2-3.6 1.4-4 0.4 0.4 0.7 0.2 1.4 0.4 0.2 0.6 0.6 0.7 0.7 1.1 0 1 0 2 0 3C5.1 8.4 5.3 9.8 5.4 10.5c-0.7 1.9-0.8 4.6-0.9 6.7 0.1 0 0.2 0 0.4 0C5.2 15.6 6.5 15.1 6.8 13.5z" class="a"></path><path d="M138.3 12.1c0.1-0.4 0-0.3 0.2-0.5 0.3 0.5 0.5 0.3 1.1 0.2 0.3 0.8 1.5 1.5 1.1 2.5 -0.3 1.3-1.3 1.5-1.9 2.3 -0.5 0.6-0.6 1.3-1 1.9 -0.3-0.1-0.1-0.1-0.5 0 0.3 1.4-1.9 2.8-2.3 4.4 0.4 0 0.7 0 1.1 0 0.1 0.4 0 0.3 0.2 0.5 0.3-0.4 2.2-0.1 2.3 0 0.4 0.4 0.8 0.9 0.9 1.6 -0.1 0.1-0.1 0.1-0.2 0.2 -0.2 0-0.4 0-0.5 0 -0.1 0.4 0 0.3-0.2 0.5 -0.3 0.2-0.7 0.2-1.2 0.2 -0.1 0.6 0.1 0.3-0.3 0.5 -0.9-0.5-2.6-0.6-3.9-1.1 -0.5-0.2-1.3-0.6-1.4-0.5 -0.4 0.6-0.2 1.7-0.4 2.1 -0.1 0.4-0.2 0.4-0.3 0.7 -0.3-0.1-0.3-0.5-0.5-0.2 -0.1 0-0.1 0-0.2 0 0.1 0.2 0.2 0.4 0.4 0.5 -0.1 0-0.2 0-0.4 0 -0.2 0.1-0.2 0.1-0.5 0.2 0.1-0.4 0.2-0.2 0-0.5 -0.1 0.1-0.2 0.2-0.4 0.4 -0.2-0.5-0.7-0.6-1-0.9 -0.3-0.8-0.5-2.9-0.2-3.5 0-0.1 0-0.1 0-0.2 0.1 0.1 0.2 0.1 0.4 0.2 0-0.1 0-0.1 0-0.2 -0.2-0.4-0.2-1.9 0-2.3 0.2-0.4-0.1-0.1 0.3-0.4 0 0.5-0.2 0.2 0 0.5 0-0.1 0-0.1 0-0.2 0.2-0.4-0.2-0.9-0.2-1.4 0-0.6 0.7-1.3 0.9-1.9 -0.4-0.1-0.3-0.1-0.5-0.3 0.9-1 0.1-3.3 1.6-3.7 -0.1-1.2 0-2.8 0.7-3.9 -0.2-1.9-0.3-4.3 1.1-5.4 0.1-0.1 0.1-0.1 0.2-0.2 0.1 0.4 0 0.3 0.2 0.5 0.3-0.4 0.3-0.3 0.9-0.5 0.5 1.4 1.7 1.6 1.9 3.9 -0.5 0.1-0.4 0.6-0.3 1.6 -0.5 0.6-1.2 4.3-1 5.3 -0.4 0.1-0.2-0.2-0.4 0.2 -0.3 0.4-0.8 3.1-0.7 3.2 0 0.1 0 0.1 0 0.2 0.1 0 0.1 0 0.2 0 0.1-0.7 0.2-0.7 0.4-1.2 0.4 0.1 0.2 0.2 0.5 0C133.4 16.3 137.2 12.3 138.3 12.1z" class="a"></path><path d="M39.8 6c0.1 1.1 0.8 1.1 0.7 2.1 -0.1 0.8-0.6 3.9-0.2 4.6 -0.2 0-0.4 0-0.5 0 0 0.4 0 0.7 0 1.1 0.1 0 0.2 0 0.4 0 0 0-0.2 1-0.2 1.2 -0.2 0-0.4 0-0.5 0 -0.2 0-0.1-0.1-0.2 0 0.5 0.8-0.2 1.9-0.2 3.2 0 1.7-1 5.4-0.9 8.4 -0.7 0.1-0.8 0.3-1.1 0.7 -0.2-0.1-1.2-0.3-1.4-0.5 -0.5-0.5 0.1-0.8-0.9-1 0.1-1.4 0-1.6-0.4-2.8 0.5-0.1 0.2 0.1 0.4-0.3 -0.2-0.3 0-2.7 0-3.7 0.5-0.1 0.2 0.1 0.4-0.4 -0.4-0.2-0.1 0.1-0.4-0.4 0.4-0.2 0.6-0.3 0.7-0.7 0-0.2-0.4-1.4-0.4-1.6 0.3-0.9 0.6-1.9 0.5-2.5 0-0.2 0-0.4 0-0.5 -0.1 0-0.2 0-0.4 0 0 0.1 0 0.1 0 0.2 -0.7 0.7-0.9 2.2-1.9 2.5 0 0.2 0 0.5 0 0.7 -0.1 0-0.1 0-0.2 0 -0.2-0.1 0-0.1-0.3-0.2 -0.1 0.7-0.2 0.9-0.5 1.1 -0.2 0.1-0.3 0.1-0.7 0.2 -0.1 0.4 0 0.3-0.2 0.5 0 0.1 0 0.1 0 0.2 -0.9 0.1-1.5-0.1-2.1 0 -0.2-0.7-1-1.3-1.6-1.9 -0.1 0.1-0.1 0.1-0.2 0.2 -0.3 0.6-0.3 1-0.5 1.8 0.1 0.2 0.1 0.4 0.2 0.5 -0.6 1.3-0.9 3.5-1.8 4.6 0 0 0.5 0.7 0.4 1.1 -0.2 0.5-0.5 0.7-0.5 1.8 -0.9 0.3-1.2 1.2-1.9 0.9 -1.1-0.2-1.5-1-2.1-1.6 0.2-3.6 2.6-8.7 3.5-12.5 0.2 0.1 0.4 0.1 0.5 0.2 -0.4-2.5 1.6-4.5 0.9-6.7 0.6 0 0.2 0.3 0.5-0.2 0.5-0.6-0.1-0.6 1.1-0.7 0.2-0.1 0.9 0 1.6 0 0.5 0.8 1.3 0.8 1.4 1.9 0.9 1.3 0.3 3.4 0.7 4.6 0.1-0.1 0.1-0.1 0.2-0.2 0.3-0.3 1-0.5 1.2-0.9 0-0.2 0-0.5 0-0.7 0.3-0.6 1-1.4 1.4-1.9l0.9-0.2c0.1-0.3 0.1-0.7 0.2-1.1 0.3-0.6 1.3-0.8 1.8-1.4 0.7 0.2 0.3 0.2 0.9 0 0.1-0.1 0.2-0.1 0.4-0.2C38.7 5.5 39.1 5.8 39.8 6z" class="a"></path><path d="M70.6 6.5c-0.1-1.3-0.3-1.4-0.4-2.6 -0.2 0-0.4 0-0.5 0 0-0.2 0-0.5 0-0.7 -0.5-0.1-0.9-0.1-1.4-0.2 -0.1-0.6-0.2-0.5-0.4-0.9 -0.7 0-1.3 0-1.6-0.2 -0.3 0.3-0.5 0.5-0.7 0.9 -0.7-0.3-0.8-1.1-1.4-1.6 -0.1-0.1-0.6 0.4-1.1 0.2 -0.4-0.2-0.3-0.3-0.5-0.5 0-0.1 0-0.1 0-0.2C62.1 1 61.6 1.4 61.5 2.1c-0.1-0.2-0.1 0-0.2-0.3 -0.4 0.3-0.3 0.1-0.3 0.7 -0.1-0.1-0.2-0.2-0.4-0.3 -0.3 0.7-0.6 1.5-1 2.1 -0.1 0.5-0.3-0.1-0.4-0.3 -0.1 0-0.1 0-0.2 0 0 1 0.1 2.4 0.5 3.2 0.2 0.1 0.4 0.1 0.5 0.2 0.1 0.7 0.1 1.4 0.2 2.1 0.6 0.9 1.7 1.5 1.9 2.8 1.1 0.3 1.5 1.7 2.5 1.8 0 0.3 0 0.6 0 0.9 0.6-0.2 1.1-0.6 1.4-1.1 0.4 0.2 0.4 0.2 0.5 0.7 0.4-0.3 0.4-0.5 0.4-1.2 0.2 0.1 0.3 0.1 0.5 0.2 0.2-0.4 0.4-0.8 0.7-1.1 0.2-0.1 0.2-0.1 0.5-0.2 0.1-0.9 0.5-1.9 1.1-2.5 0-0.1 0-0.1 0-0.2 0.1 0.1 0.2 0.1 0.4 0.2 0.3-0.8 0.6-1.6 1.1-2.3C71.1 6.4 71.1 6.5 70.6 6.5zM65.3 10c-0.1 0-0.1 0-0.2 0 -0.3-0.5-0.4-0.6-1.1-0.7 0-0.3 0-0.6 0-0.9 -0.2 0-0.4 0-0.5 0 -0.3-0.6-0.5-1.6-1.1-1.9 0-0.7 0-0.9 0.3-1.2 0.3 0.1 0.9 0.9 0.9 1.4C64.1 6.5 64 6.5 64.3 6.3c0.1 0.2 0.2 0.4 0.4 0.5 0.4-1.1 2-0.6 2.3-1.1 0.1 0 0.2 0 0.3 0C67.2 8.2 65.9 8.1 65.3 10z" class="a"></path><path d="M58.8 8.4c0 0.1 0 0.2 0 0.4 0.1 0 0.1 0 0.2 0 0-0.1 0-0.2 0-0.4C59 8.4 58.9 8.4 58.8 8.4z" class="a"></path><path d="M82.5 11.1c-0.1 0.1-0.1 0.2-0.2 0.4C82.6 11.2 82.5 11.1 82.5 11.1z" class="a"></path><path d="M126.9 14.9c0.1 1.1 0.1 1.7-0.2 2.1 -0.7 0.7-1.4 0.8-2.3 1.1 -0.2 0-0.5-0.4-0.9-0.2 -0.7 0.3-1.4 1.2-2.3 1.4 0 0.1 0 0.1 0 0.2 0.9 0.2 0 0.2 0.9 0.4 0.2 0.2 0.4 0.2 0.9 0.2 0 0.2 0 0.4 0 0.5 0.4 0.1 0.4 0.1 0.7 0.2 0.4 0.8 1.8 2.6 1.2 4.2 -0.2 0.5-0.7 0.9-0.9 1.6 -2.1 0.4-2.9 2.3-5.1 1.1 -0.2-0.2 0.1-0.2-0.2-0.5 -0.4 0.3-0.8 0.1-1.4 0 0-0.2 0-0.3 0-0.5 -0.3 0-0.8-0.5-1.1-1.1 0.2-0.2 0.2-0.3 0.4-0.5 0.5 0.3 0.5 0.2 1.4 0.2 0.1 0.4 0 0.3 0.2 0.5 0.1-0.1 1.2-0.6 2.1-0.7 0.4-0.7 0.7-1 0.7-2.3 -0.1-0.1-0.2-0.2-0.4-0.3 -0.3 0.1 0 0.2-0.2 0.4 -0.5 0-2.9-1.2-3.2-1.8 0-0.5 0-1.1 0-1.6 0.1-0.1 0.1-0.9 0.2-1.4 0.5-0.2 0.3-0.2 0.9-0.4 0.1 0.4 0 0.3 0.2 0.5 0.1-0.6 0.2-1.2 0.5-1.6 0.5 0.3 3.9-1.7 4.7-2.1C125.1 13.7 126 14.7 126.9 14.9z" class="a"></path><path d="M112.5 18.8c-0.5 2.4-3.3 5.6-3 8.1 -0.7 0.1-1.4 0.6-1.6 0.7 -0.1 0.3 0.1 0.3-0.7 0.4 -0.1 0.1-0.1 0.1-0.2 0.2 0-0.4 0-0.5-0.2-0.7 -0.3 0.1-1.6-0.6-1.8-1.1 0.5 0 0.1 0.1 0.5-0.2 0-0.1 0-0.2 0-0.4 -0.6 0-0.2 0.3-0.5-0.2 0.7-0.4 0.2-1.5 0.5-2.6 0.7-2.7 0.4-4.4 1.4-6.5 1.5-0.1 1.5 0.2 2.5 0.5 0.1-0.3 0.7-1.3 0.9-1.6 0.5 0.7 0.8-0.1 1.2-0.3 0.1 0.1 0.2 0.2 0.4 0.4 0.5-0.2 0.6-0.3 1.4-0.3 1 1 1.9 1.3 2.8 2.5 0.2-0.1 0.1-0.1 0.4-0.2 0.1 0.8 0.3 0.9 0.5 1.6 -0.5 0.2-0.4 0.2-0.5 0.7 -1 0-2.5 0.1-3-1.4C113.1 18.6 113.3 18.7 112.5 18.8z" class="a"></path><path d="M27.7 15.4c0.1 0.1 0.2 0.2 0.4 0.4C27.9 15.7 27.8 15.6 27.7 15.4z" class="a"></path><path d="M24.2 15.6c0.2 0.1 0 0.1 0.4 0.2C24.4 15.7 24.5 15.7 24.2 15.6z" class="a"></path><path d="M143.9 28.8c-0.3 0-0.6 0-0.9 0 0 0.5 0.1 0.1-0.2 0.5 -0.1 0-0.2 0-0.4 0 0.1-0.1 0.1-0.2 0.2-0.3 -0.1 0-0.1 0-0.2 0 -0.2 0.1-0.3 0.1-0.7 0.2 0-0.5 0.1-0.6 0.2-0.9 -0.7 0-0.5 0.1-1.1 0 0-0.8-0.4-1.4-0.7-2.3 -0.1-0.3-0.2-2.3 0-3.2 0.3-1.2 0.6-5.1 1.9-6.7 0.2-0.2 0.5-0.4 0.7-0.5 0.2 0.1 1.3 0.3 1.9 0.4 0.2 0.6 0.3 1.2 0.5 1.4 0.1 0 0.2 0 0.4 0 0.1 0.1-0.3 1.9-0.4 2.5 -0.5 0.1-0.3-0.1-0.3 0.7 -0.1 0.5-0.8 2.4-1 3.3C143.4 25.5 143.9 27 143.9 28.8z" class="a"></path><path d="M113.7 15.8c0.2 0.1 0 0.1 0.4 0.2C113.9 15.8 114 15.9 113.7 15.8z" class="a"></path><path d="M63.7 16c0.1 0.3 0.1 0.6 0.2 0.9 0.1 0 0.2 0 0.4 0 0-0.1 0-0.2 0-0.4 0.1 0 0.2 0 0.4 0 0 0.1 0 0.1 0 0.2 1.9 2.3 0.6 6.4 0.5 9.6 -0.9 0.1-1.3 0.5-1.8 1.2 -0.4-0.4-0.3-0.4-1.1-0.5 -0.1-0.8-0.6-1.8-0.7-2.8 -0.1-0.5 0.3-1.8 0.4-2.3 0.3-1.5 0-3.8-0.2-5.1 0.4-0.2 0.5-0.4 0.7-0.7C63.2 16.4 62.8 16.2 63.7 16z" class="a"></path><path d="M72.2 16c0 0.1 0 0.2 0 0.4 0.1 0 0.1 0 0.2 0 0-0.1 0-0.2 0-0.3C72.3 16 72.2 16 72.2 16z" class="a"></path><path d="M110.6 16.1c-0.1 0.1-0.1 0.2-0.2 0.4C110.7 16.3 110.6 16.1 110.6 16.1z" class="a"></path><path d="M59.9 10.4c-0.3-0.9-0.8-3-1.4-3.7 -0.6-0.6-1.6-1-2.1-1.8 0-0.2 0-0.4 0-0.5 -0.1 0-0.1 0-0.2 0 -0.1 0.1-0.1 0.1-0.2 0.2 0-0.1 0-0.1 0-0.2 -0.1 0-0.1 0-0.2 0 -1.1-0.4-1.2-0.8-1.9-1.2 -0.3-0.2-0.7 0.2-0.9 0.2 -0.2-0.2-0.4-0.3-0.9-0.5 -0.4 0.8-0.5 1.2-0.4 2.3 -0.6 0.1-0.4 0.2-1.1 0.4 0-0.2 0-0.4 0-0.5 -0.4 0.2-0.6 0.5-1.1 0.7 -0.3 1.3-0.8 4.2-0.3 4.9 -0.1 0.7 0 0.5-0.5 0.5 0.1 0.5 0.3 0.8 0.4 1.1 0.1 0.7-0.6 0.9 0 1.4 0-0.1 0-0.2 0-0.3 0.1 0 0.1 0 0.2 0 0 0.1 0 0.2 0 0.4 0 0-0.1 0-0.1 0 0 0 0.1 0.1 0.1 0.1 -0.1 0.5 0.1 0.3-0.4 0.4 -0.1 1-0.5 3.7 0 4.2 0 0.2 0 0.5 0 0.7 -0.1-0.2-0.1 0-0.2-0.3 -0.1 0-0.2 0-0.3 0 0.2 1.2 0.2 3-0.5 3.5 0.2 0.1 0.2 0.1 0.5 0.2 -0.2 0.4-0.2 0.5-0.2 0.7 -0.1 0.6 0.1 0.5-0.4 0.5 0.1 0.8 0.2 1-0.2 1.6 0 0 0 0.4 0.1 0.4 -0.1 0-0.2 0-0.4 0.1 0.2 0.1 0.2 0.1 0.5 0.2 -0.3 0.7-0.1 0.7-0.2 1.2 0.4 0.2 0.5 0.2 0.7 0.7 0.1-0.1 0.2-0.2 0.4-0.4 0.1 0 0.2 0 0.4 0 0.1 0.6 0.1 0.5 0 1.1 0.6-0.4 0.4-0.5 1.2-0.3 0.2-0.2 0-0.4 0.2-0.5 0.2-0.1 0.2-0.1 0.5-0.2 0.1-1.1 0.3-1.5 0.2-2.3 0 0-0.4-0.4-0.4-0.5 0.1-0.1 0.7-0.3 0.7-0.3 0.6-1.1-0.5-2.2 0.7-3 -0.1-0.1-0.2-0.2-0.3-0.3 0-0.1 0-0.1 0-0.2 0.1 0.1 0.2 0.1 0.3 0.2 0-0.5-0.1-0.3 0-0.5 0-0.5 0-1.1 0-1.6 0.4 0.4 0.4 0.4 0.9 0.9 0.5 0.2 0.5-0.4 0.7 0.2 1.2-1.2 4.4-1.7 4.7-3.9C60.1 15.6 60.5 12.1 59.9 10.4zM47.9 25.5c0 0 0 0 0-0.1 0.1-0.1 0.1-0.1 0.2-0.2C48 25.4 48 25.5 47.9 25.5zM53 19c0.1 0 0.2 0 0.4 0C53.2 19.3 53.3 19.1 53 19zM55 15.8c-0.6-0.1-1.6 0.5-2.1 1.1 -0.1 0-0.2 0-0.4 0 0.2-2.7 1.6-9.3 0.5-10.2 0-0.1 0-0.1 0-0.2 0.8 0.2 0.7 0.5 1.6 0.7 0 0.2 0 0.4 0 0.5 0.2 0 0.4 0 0.5 0 0.2 0.8 0.7 0.9 0.9 1.4 -0.1 0.3-0.1 0.6-0.2 0.9 0.1 0.4 0.5 0.8 0.5 0.9C57 12.4 55.2 14.4 55 15.8z" class="a"></path><path d="M42.1 24.7c-0.2-1.2-1.2-2.2-0.2-2.8 0.1 0.1 0.1 0.1 0.2 0.2 0-0.1 0-0.1 0-0.2 -0.1-0.3 0-0.7 0.4-1 0.6 0.2 0.1 0 0.5-0.3 0.1 0.1 0.1 0.1 0.2 0.2 0 0.1 0.7 0.2 1.2 0.2 0.2 0.6 0.6 1 1.1 1.4 -0.1 1-0.1 1.5 0 2.3 -0.6 0.1-1.2 0.5-1.6 0.9C43.4 25.1 43 24.8 42.1 24.7z" class="a"></path><path d="M35.1 20.9c0.2 0.1 0 0.1 0.4 0.2C35.2 20.9 35.4 21 35.1 20.9z" class="a"></path><path d="M77.2 23.2c-1.1 0.1-2.3 0.9-3.2 0.7 -0.7-0.1-1-0.7-1.8-0.5 0.1-0.4 0.1-0.1 0-0.5 0.5-0.2 0.4-0.2 0.7-0.5 0.3 0.2 0.6 0.4 1.1 0 0.4-0.3 0.3-0.7 0.9-0.9 0.7 0.2 2.2-0.1 3-0.7 0.3-0.5 0.6-1 0.9-1.6 -0.1-0.7-0.3-1.8-0.7-2.3 -0.7-1-3.5-1.5-4.4-2.1 -0.5 1-1.7 0.8-2.6 1.4 -0.3 0.2-0.3 0.8-0.5 1.1 -1.6 2.1-2.9 4.2-1.2 7 0.3 0.5 0 0.8 0.5 1.1 0.2 0.3 0 0.2 0.4 0.2 0.4 0.3 0.2 0 0.4 0.5 0.7 0.1 0.6 0.3 1.1 0.2 0.1 0 0.1 0 0.2 0 0.1 0.2 0.1 0.4 0.2 0.5 0.3 0.2 1.1-0.2 1.8 0.2 0 0-0.1 0.6 0.2 0.4 0.7-0.8 1.7-0.3 2.6-0.9 0.2-0.1 0.2-0.6 0.4-0.7 0.4-0.2 0.9 0 1.1 0 0.1-0.5 0.2-0.4 0.3-0.9 -0.3-0.2-0.2-0.1-0.3-0.2C77.6 24.3 77.4 23.5 77.2 23.2zM72.2 19.5c0.2-0.2 0.2-0.6 0.4-0.9 0.4-0.6 1.2-0.9 1.6-1.4 0.7 0.1 1.6 0.1 1.9 0.7 0.1 0.1 0.1 0.1 0.2 0.2 -0.1 0-0.1 0-0.2 0 -0.5 1.1-2.3 1.2-3.2 1.9 -0.4-0.1-0.3 0-0.5-0.2C72.2 19.6 72.3 19.8 72.2 19.5z" class="a"></path><path d="M110.7 21.1c0 0.1 0 0.2 0 0.4 0.1 0 0.1 0 0.2 0 0-0.1 0-0.2 0-0.4C110.9 21.1 110.8 21.1 110.7 21.1z" class="a"></path><path d="M109.7 23.9c0.2 0.1 0 0.1 0.4 0.2C109.9 23.9 110 24 109.7 23.9z" class="a"></path><path d="M103.7 25.4c0.1-0.1 0.2-0.2 0.4-0.3 0.1-0.1-0.3-0.6-0.3-1.2 -0.1 0.2-0.1 0.2-0.2 0.5 -0.3 0.2-0.1 0 0 0.4 -0.1 0-0.1 0-0.2 0 -0.5-0.2-0.5-1-1.4-0.9 0.8-2.2 0.9-6.6-0.4-8.2 -0.3-0.3-1.6-0.8-2.1-0.2 -0.1-0.2-0.1-0.2-0.2-0.5 -0.8 0.7-1 0.2-2.1 0.9 -1.4 0.9-2.2 2.7-3.5 4 -0.2 0.2-0.7 0.3-0.9 0.5 -0.3 0.3-0.4 1.6-0.5 1.9 -0.3-0.2-0.6-0.4-0.9-0.5 -0.2 0.4-0.3 0.3-0.3 0.9 -0.2-0.1-0.1-0.1-0.2-0.2 -0.3-0.6-1.6-1-1.9-0.5 -0.2-0.2-0.2-0.4-0.2-0.9 -0.5 0.1-0.3 0.1-0.9 0 0.4-1.4 1.6-2.1 1.8-3.7 0.1 0.1 0.2 0.2 0.3 0.4 0.9-1.2 0.9-3 2.5-3.5 -0.3-0.5-0.6-1.1-0.7-1.8 -0.5 0-0.3-0.1-0.5 0 -0.4-0.3-0.3-0.1-0.4-0.7 -0.1 0.2-0.1 0.2-0.2 0.5 -0.5 0-1.6 0.2-1.6 0.2 -0.5 0.3-0.7 0.8-0.7 1.6 -0.4-0.1-0.4-0.1-0.7-0.2 -0.7 1.1-2 2.7-2.6 4.2 -0.1 0-0.2 0-0.4 0 0.2-0.8 0.3-2.6 0.5-3.3 0.3-0.9 0.9-1.8 0.9-2.6 0-0.7-0.1-2.9 0.2-3.3 -0.1-1.1-1.1-1.7-1.8-2.3 0-0.1 0-0.1 0-0.2 -0.1 0.2-0.1 0.2-0.2 0.5 -0.7 0-1.3 0.2-1.8 0.5 -0.4 0.4-0.4 1.1-0.9 1.4 0.2 0.3 0.4 0.7 0.7 0.9 -0.9 2-0.9 4.4-1.4 6.8 0.1 0.3 0.1 0.6 0.2 0.9 -0.4 1-0.8 3.3-0.7 4.2 0.3 1.8-0.6 3.4 0.3 4.6 0.4 0.3 0.7 0.1 1.1 0.9 0.3-0.1 0.6-0.3 0.9-0.5 0.2 0.3 0 0.3 0.2 0.5 0.2 0.2 0.5-0.1 0.7-0.3 0.1-0.1 0.1-0.1 0.2-0.2 -0.1 0-0.1 0-0.2 0 0.3-0.4 0-0.2 0.5-0.4 0-0.9-0.3-1-0.4-1.2 -0.2-0.8 0.3-1.9 0.4-2.6 1.2 0.7 6.8 4.4 7.9 1.8 0.5 0.3 0.2 0 0.2 0.5 1.2 0.5 2.2 1.6 3.5 0.5 1.3 0 1.4 0.1 1.6-0.9 0.1 0 0.2 0 0.4 0 0.3-0.1-0.4-0.2-0.4-0.2 0.5-0.4 0.5-0.6 1.2-0.7 0 1.3 0.6 1.5 0.7 2.8 1 0.1 0.5 0.1 0.9 0.5 0.1 0.1 0.8 0.5 1.2 0.4 0.1 0 0.1 0 0.2 0 -0.1 0.1-0.1 0.2-0.2 0.4 0.1 0 0.1 0 0.2 0 0.4 0.4 1.7-0.9 2.5-1.1 0.1-0.3 0.1-0.6 0.2-0.9C104.1 25.4 103.9 25.4 103.7 25.4zM97.2 21.6c-0.5 0-0.9-0.1-1.2-0.2 0.1-1.9 1.1-2.2 2.1-3.2 0.5 0 0.9 0 1.4 0 0.1 0.1 0.1 0.1 0.2 0.2C99.3 20.1 98.2 20.6 97.2 21.6z"></path><path d="M35.2 24.9c0 0.1 0 0.2 0 0.4 0.1 0 0.1 0 0.2 0 0-0.1 0-0.2 0-0.3C35.4 24.9 35.3 24.9 35.2 24.9z" class="a"></path><path d="M83.4 24.9c0 0.1 0 0.2 0 0.4 0.1 0 0.1 0 0.2 0 0-0.1 0-0.2 0-0.3C83.5 24.9 83.4 24.9 83.4 24.9z" class="a"></path><path d="M128.1 25.6c0.1 0.6-0.1 0.3 0.4 0.5 0-0.1 0-0.1 0-0.2C128.3 25.9 128.2 25.7 128.1 25.6z" class="a"></path><path d="M2.7 13.5c0 0.1 0 0.2 0 0.3 0.1 0 0.1 0 0.2 0 0-0.1 0-0.2 0-0.3C2.8 13.5 2.8 13.5 2.7 13.5z" class="a"></path><path d="M17.5 22.9c0.7 0.1 0.8 0.2 1.2 0.4 0.5 1 1.1 0.8 1.2 1.8 0.3 0.5-0.1 1.1-0.3 1.6 -0.7 0.3-1 0.5-2.1 0.5 -0.4-0.6-0.6-0.7-1.4-0.9 -0.1-1-0.4-1.1-0.5-2.1 0.2-0.2 0.2-0.3 0.4-0.7C16.5 23.5 17 23.4 17.5 22.9z" class="a"></path></svg>